<?xml version="1.0" encoding="utf-8"?>
<!-- Generator: Adobe Illustrator 22.0.0, SVG Export Plug-In . SVG Version: 6.00 Build 0)  -->
<svg version="1.1" id="图层_1" xmlns="http://www.w3.org/2000/svg" xmlns:xlink="http://www.w3.org/1999/xlink" x="0px" y="0px"
	 viewBox="0 0 1366 768" style="enable-background:new 0 0 1366 768;" xml:space="preserve">
<style type="text/css">
	.st0{fill:#333333;}
	.st1{fill:#999999;}
	.st2{fill:#CCCCCC;}
	.st3{fill:#666666;}
</style>
<g id="立方体">
	<polygon class="st0" points="534,411 369,452 283,328 516,320 	"/>
	<rect x="136" y="219" class="st1" width="233" height="233"/>
	<polygon class="st2" points="430,152 197,152 136,219 369,219 	"/>
	<polygon class="st3" points="369,452 430,385 430,152 369,219 	"/>
</g>
<g id="立方体_1_">
	<polygon class="st0" points="1187,391 1046,468 960,344 1159,337 	"/>
	<polygon class="st1" points="1046,468 813,468 864,235 985,235 	"/>
	<polygon class="st2" points="1046,168 925,168 864,235 985,235 	"/>
	<polygon class="st3" points="1046,468 1107,401 1046,168 985,235 	"/>
</g>
<polygon class="st0" points="487.8,610 431,517.5 487.7,425 601.2,425 658,517.5 601.3,610 "/>
</svg>
